<svg width="40" height="36" viewBox="0 0 40 36" fill="none" xmlns="http://www.w3.org/2000/svg">
<path fill-rule="evenodd" clip-rule="evenodd" d="M33.5459 3.05176e-05C35.4261 1.85009 37.3326 3.66583 39.2655 5.44725C39.2655 12.9551 39.0839 28.3256 39.0839 28.3256C37.8129 35.0438 33.498 36.5082 27.554 35.8609C25.8851 35.5408 24.3719 34.875 23.0146 33.8636C19.1836 30.1842 15.3705 26.4619 11.5754 22.6968C11.4198 22.4724 11.2123 22.3477 11.2123 21.9705C11.2123 19.5647 11.2123 17.1296 11.2123 14.7983C11.353 14.575 11.5346 14.5145 11.757 14.6167C16.7859 19.5853 21.87 24.4878 27.0092 29.3242C28.6651 30.8825 31.7433 30.6967 32.7288 28.3256C32.9462 27.8555 32.9609 27.5659 33.1348 26.8701C33.3088 26.1744 33.5459 9.12847 33.5459 3.05176e-05Z" fill="url(#paint0_linear_14_325)"/>
<path fill-rule="evenodd" clip-rule="evenodd" d="M5.7999 36C3.9197 34.1499 2.01317 32.3342 0.0803148 30.5528C0.0803148 23.0449 0.261888 7.67444 0.261888 7.67444C1.53291 0.956203 5.84783 -0.508199 11.7918 0.139113C13.4607 0.459228 14.9739 1.12506 16.3312 2.13643C20.1622 5.81584 23.9753 9.53812 27.7704 13.3032C27.926 13.5277 28.1335 13.6523 28.1335 14.0295C28.1335 16.4353 28.1335 18.8704 28.1335 21.2017C27.9928 21.425 27.8112 21.4855 27.5888 21.3833C22.5599 16.4147 17.4758 11.5122 12.3366 6.67578C10.6807 5.1175 7.60248 5.30329 6.61698 7.67444C6.39964 8.14453 6.38492 8.43417 6.21098 9.12992C6.03704 9.82567 5.7999 26.8716 5.7999 36Z" fill="url(#paint1_linear_14_325)"/>
<defs>
<linearGradient id="paint0_linear_14_325" x1="23.5557" y1="15.6741" x2="37.4849" y2="29.1658" gradientUnits="userSpaceOnUse">
<stop stop-color="#6C3EF9"/>
<stop offset="1" stop-color="#673DE6"/>
</linearGradient>
<linearGradient id="paint1_linear_14_325" x1="15.7901" y1="20.3259" x2="1.8609" y2="6.83426" gradientUnits="userSpaceOnUse">
<stop stop-color="#6C3EF9"/>
<stop offset="1" stop-color="#673DE6"/>
</linearGradient>
</defs>
</svg>
