<svg width="217" height="52" viewBox="0 0 217 52" fill="none" xmlns="http://www.w3.org/2000/svg">
<path fill-rule="evenodd" clip-rule="evenodd" d="M33.5459 12C35.4261 13.8501 37.3326 15.6658 39.2655 17.4473C39.2655 24.9551 39.0839 40.3256 39.0839 40.3256C37.8129 47.0438 33.498 48.5082 27.554 47.8609C25.8851 47.5408 24.3719 46.875 23.0146 45.8636C19.1836 42.1842 15.3705 38.4619 11.5754 34.6968C11.4198 34.4724 11.2123 34.3477 11.2123 33.9705C11.2123 31.5647 11.2123 29.1296 11.2123 26.7983C11.353 26.575 11.5346 26.5145 11.757 26.6167C16.7859 31.5853 21.87 36.4878 27.0092 41.3242C28.6651 42.8825 31.7433 42.6967 32.7288 40.3256C32.9462 39.8555 32.9609 39.5659 33.1348 38.8701C33.3088 38.1744 33.5459 21.1285 33.5459 12Z" fill="url(#paint0_linear_16_354)"/>
<path fill-rule="evenodd" clip-rule="evenodd" d="M5.7999 48C3.9197 46.1499 2.01317 44.3342 0.0803148 42.5528C0.0803148 35.0449 0.261888 19.6744 0.261888 19.6744C1.53291 12.9562 5.84783 11.4918 11.7918 12.1391C13.4607 12.4592 14.9739 13.1251 16.3312 14.1364C20.1622 17.8158 23.9753 21.5381 27.7704 25.3032C27.926 25.5277 28.1335 25.6523 28.1335 26.0295C28.1335 28.4353 28.1335 30.8704 28.1335 33.2017C27.9928 33.425 27.8112 33.4855 27.5888 33.3833C22.5599 28.4147 17.4758 23.5122 12.3366 18.6758C10.6807 17.1175 7.60248 17.3033 6.61698 19.6744C6.39964 20.1445 6.38492 20.4342 6.21098 21.1299C6.03704 21.8257 5.7999 38.8716 5.7999 48Z" fill="url(#paint1_linear_16_354)"/>
<path d="M48.6 40V20.16H53.2L53.68 23.4H53.84C54.48 22.2267 55.3467 21.32 56.44 20.68C57.5333 20.0133 58.9067 19.68 60.56 19.68C62.2133 19.68 63.6133 20.04 64.76 20.76C65.9067 21.4533 66.7733 22.48 67.36 23.84C67.9733 25.2 68.28 26.88 68.28 28.88V40H62.88V29.36C62.88 27.7067 62.5467 26.44 61.88 25.56C61.2133 24.68 60.16 24.24 58.72 24.24C57.8133 24.24 57 24.4667 56.28 24.92C55.56 25.3467 55 25.9733 54.6 26.8C54.2 27.6 54 28.5867 54 29.76V40H48.6ZM81.0553 40.48C79.0286 40.48 77.2286 40.0533 75.6553 39.2C74.1086 38.3467 72.8953 37.1467 72.0153 35.6C71.1353 34.0533 70.6953 32.28 70.6953 30.28C70.6953 28.2 71.122 26.3733 71.9753 24.8C72.8553 23.2 74.0686 21.9467 75.6153 21.04C77.1886 20.1333 79.002 19.68 81.0553 19.68C83.0553 19.68 84.802 20.1067 86.2953 20.96C87.7886 21.8133 88.962 22.9867 89.8153 24.48C90.6686 25.9467 91.0953 27.6133 91.0953 29.48C91.0953 29.7467 91.082 30.0533 91.0553 30.4C91.0553 30.72 91.042 31.0533 91.0153 31.4H74.5353V28.08H85.6153C85.5353 26.8267 85.0686 25.8267 84.2153 25.08C83.3886 24.3333 82.3486 23.96 81.0953 23.96C80.162 23.96 79.3086 24.1733 78.5353 24.6C77.762 25 77.1486 25.6267 76.6953 26.48C76.242 27.3067 76.0153 28.36 76.0153 29.64V30.8C76.0153 31.8933 76.2286 32.84 76.6553 33.64C77.082 34.4133 77.6686 35.0133 78.4153 35.44C79.1886 35.8667 80.0553 36.08 81.0153 36.08C82.002 36.08 82.8286 35.8667 83.4953 35.44C84.162 34.9867 84.6686 34.4133 85.0153 33.72H90.4953C90.122 34.9733 89.4953 36.12 88.6153 37.16C87.7353 38.1733 86.6553 38.9867 85.3753 39.6C84.0953 40.1867 82.6553 40.48 81.0553 40.48ZM93.6828 48V20.16H98.2028L98.5228 23.64H98.6828C99.1895 22.8133 99.7895 22.1067 100.483 21.52C101.203 20.9333 102.016 20.48 102.923 20.16C103.856 19.84 104.869 19.68 105.963 19.68C107.856 19.68 109.496 20.1333 110.883 21.04C112.269 21.92 113.349 23.1467 114.123 24.72C114.896 26.2933 115.283 28.08 115.283 30.08C115.283 32.08 114.896 33.8667 114.123 35.44C113.349 37.0133 112.256 38.2533 110.843 39.16C109.429 40.04 107.749 40.48 105.803 40.48C104.256 40.48 102.909 40.1867 101.763 39.6C100.643 38.9867 99.7495 38.2667 99.0828 37.44V48H93.6828ZM104.403 36.08C105.496 36.08 106.443 35.8267 107.243 35.32C108.069 34.8133 108.696 34.12 109.123 33.24C109.576 32.3333 109.803 31.2933 109.803 30.12C109.803 28.92 109.576 27.88 109.123 27C108.696 26.0933 108.069 25.3867 107.243 24.88C106.443 24.3733 105.496 24.12 104.403 24.12C103.336 24.12 102.389 24.3733 101.563 24.88C100.736 25.3867 100.096 26.0933 99.6428 27C99.1895 27.88 98.9628 28.92 98.9628 30.12C98.9628 31.2933 99.1895 32.3333 99.6428 33.24C100.096 34.12 100.736 34.8133 101.563 35.32C102.389 35.8267 103.336 36.08 104.403 36.08ZM126.577 40.48C124.71 40.48 123.084 40.04 121.697 39.16C120.31 38.2533 119.23 37.0133 118.457 35.44C117.684 33.8667 117.297 32.08 117.297 30.08C117.297 28.08 117.684 26.2933 118.457 24.72C119.23 23.1467 120.324 21.92 121.737 21.04C123.15 20.1333 124.83 19.68 126.777 19.68C128.324 19.68 129.657 19.9867 130.777 20.6C131.924 21.1867 132.83 21.8933 133.497 22.72V12H138.897V40H134.337L134.057 36.52H133.897C133.39 37.3467 132.777 38.0533 132.057 38.64C131.337 39.2267 130.524 39.68 129.617 40C128.71 40.32 127.697 40.48 126.577 40.48ZM128.177 36.04C129.27 36.04 130.217 35.7867 131.017 35.28C131.844 34.7733 132.47 34.08 132.897 33.2C133.35 32.2933 133.577 31.24 133.577 30.04C133.577 28.8667 133.35 27.84 132.897 26.96C132.47 26.0533 131.844 25.3467 131.017 24.84C130.19 24.3333 129.23 24.08 128.137 24.08C127.07 24.08 126.124 24.3333 125.297 24.84C124.497 25.3467 123.87 26.0533 123.417 26.96C122.99 27.84 122.777 28.8667 122.777 30.04C122.777 31.24 122.99 32.2933 123.417 33.2C123.87 34.08 124.497 34.7733 125.297 35.28C126.124 35.7867 127.084 36.04 128.177 36.04Z" fill="black"/>
<path d="M177.6 40V20.16H182.2L182.68 24.52H182.84C183.427 23.1067 184.067 22.0667 184.76 21.4C185.453 20.7067 186.24 20.2533 187.12 20.04C188.027 19.8 189.04 19.68 190.16 19.68V25.4H188.68C187.773 25.4 186.96 25.5067 186.24 25.72C185.547 25.9067 184.96 26.2267 184.48 26.68C184 27.1067 183.627 27.68 183.36 28.4C183.12 29.12 183 29.9867 183 31V40H177.6ZM198.455 40.48C196.882 40.48 195.575 40.2133 194.535 39.68C193.522 39.1467 192.775 38.4267 192.295 37.52C191.815 36.6133 191.575 35.6133 191.575 34.52C191.575 33.2933 191.882 32.2133 192.495 31.28C193.135 30.3467 194.095 29.6267 195.375 29.12C196.655 28.5867 198.268 28.32 200.215 28.32H205.215C205.215 27.3333 205.068 26.52 204.775 25.88C204.508 25.24 204.082 24.76 203.495 24.44C202.935 24.12 202.215 23.96 201.335 23.96C200.295 23.96 199.402 24.2 198.655 24.68C197.935 25.1333 197.482 25.8533 197.295 26.84H192.055C192.215 25.3733 192.695 24.1067 193.495 23.04C194.322 21.9733 195.402 21.1467 196.735 20.56C198.095 19.9733 199.628 19.68 201.335 19.68C203.255 19.68 204.908 20 206.295 20.64C207.682 21.2533 208.748 22.1733 209.495 23.4C210.242 24.6 210.615 26.0667 210.615 27.8V40H206.135L205.575 36.92H205.415C204.988 37.5067 204.522 38.0267 204.015 38.48C203.535 38.9333 203.002 39.3067 202.415 39.6C201.828 39.8933 201.202 40.1067 200.535 40.24C199.868 40.4 199.175 40.48 198.455 40.48ZM200.215 36.32C200.962 36.32 201.602 36.2 202.135 35.96C202.695 35.6933 203.175 35.3467 203.575 34.92C203.975 34.4933 204.282 34 204.495 33.44C204.735 32.8533 204.895 32.2533 204.975 31.64H200.815C199.988 31.64 199.308 31.7467 198.775 31.96C198.268 32.1467 197.895 32.4267 197.655 32.8C197.415 33.1467 197.295 33.56 197.295 34.04C197.295 34.52 197.415 34.9333 197.655 35.28C197.895 35.6267 198.242 35.8933 198.695 36.08C199.148 36.24 199.655 36.32 200.215 36.32Z" fill="black"/>
<path d="M213.37 21.28V16.92H214.12V21.28H213.37ZM211.46 19.45V18.74H216.03V19.45H211.46Z" fill="black"/>
<path opacity="0.973" fill-rule="evenodd" clip-rule="evenodd" d="M141 31.3465C141 30.5952 141 29.8437 141 29.0924C141.686 24.7714 144.094 21.8874 148.226 20.4406C148.728 20.2987 149.236 20.1882 149.751 20.1092C151.937 20.0147 154.125 19.9815 156.315 20.0097C156.315 21.1147 156.315 22.2196 156.315 23.3246C154.303 23.3135 152.293 23.3246 150.282 23.3577C146.52 24.103 144.509 26.3903 144.249 30.2195C144.509 34.0486 146.52 36.3359 150.282 37.0812C152.293 37.1143 154.303 37.1254 156.315 37.1143C156.315 38.2193 156.315 39.3242 156.315 40.4292C154.125 40.4574 151.937 40.4242 149.751 40.3297C146.01 39.6812 143.347 37.6371 141.762 34.1973C141.413 33.2634 141.159 32.3131 141 31.3465Z" fill="black"/>
<path opacity="0.973" fill-rule="evenodd" clip-rule="evenodd" d="M174.944 29.0924C174.944 29.8437 174.944 30.5952 174.944 31.3465C174.258 35.6675 171.85 38.5515 167.718 39.9983C167.216 40.1402 166.708 40.2507 166.193 40.3297C164.007 40.4242 161.819 40.4574 159.629 40.4292C159.629 39.3242 159.629 38.2193 159.629 37.1143C161.641 37.1254 163.652 37.1143 165.662 37.0812C169.409 36.3404 171.42 34.0642 171.696 30.2526C171.451 26.4059 169.44 24.1076 165.662 23.3577C163.652 23.3246 161.641 23.3135 159.629 23.3246C159.629 22.2196 159.629 21.1147 159.629 20.0097C161.819 19.9815 164.007 20.0147 166.193 20.1092C169.934 20.7577 172.597 22.8018 174.182 26.2416C174.531 27.1755 174.785 28.1258 174.944 29.0924Z" fill="black"/>
<path opacity="0.979" fill-rule="evenodd" clip-rule="evenodd" d="M151.143 28.4957C155.696 28.4957 160.248 28.4957 164.801 28.4957C164.801 29.6449 164.801 30.794 164.801 31.9432C160.248 31.9432 155.696 31.9432 151.143 31.9432C151.143 30.794 151.143 29.6449 151.143 28.4957Z" fill="black"/>
<defs>
<linearGradient id="paint0_linear_16_354" x1="23.5557" y1="27.6741" x2="37.4849" y2="41.1658" gradientUnits="userSpaceOnUse">
<stop stop-color="#6C3EF9"/>
<stop offset="1" stop-color="#673DE6"/>
</linearGradient>
<linearGradient id="paint1_linear_16_354" x1="15.7901" y1="32.3259" x2="1.8609" y2="18.8343" gradientUnits="userSpaceOnUse">
<stop stop-color="#6C3EF9"/>
<stop offset="1" stop-color="#673DE6"/>
</linearGradient>
</defs>
</svg>
