<svg width="805" height="795" viewBox="0 0 805 795" fill="none" xmlns="http://www.w3.org/2000/svg">
<path d="M682.072 683.364C761.461 610.019 807.081 500.698 804.532 394.023C804.402 385.987 804.033 378.082 803.422 370.136C801.788 340.409 795.038 299.016 780.838 259.959C780.68 259.518 780.52 259.078 780.361 258.639C766.543 219.92 745.82 184.324 728.587 160.663C666.143 76.154 603.943 47.3628 575.451 33.6943C547.73 21.6643 539.607 19.4837 527.917 15.3749C527.596 15.2688 527.275 15.1629 526.953 15.0575C526.933 15.0491 526.912 15.0406 526.891 15.0322C526.494 14.8772 526.158 14.754 525.985 14.6913C525.632 14.5637 525.342 14.4646 525.234 14.4277C524.984 14.3424 524.772 14.2745 524.697 14.2499C524.391 14.1494 524.04 14.0365 523.813 13.9648C521.694 13.2843 515.094 11.288 509.788 9.88957C504.356 8.44732 500.437 7.54571 496.329 6.65129C495.913 6.56111 495.496 6.47163 495.078 6.38274C491.363 5.59393 487.305 4.76334 481.434 3.68157C477.877 3.02983 475.263 3.00711 475.611 3.5634C475.964 4.1225 479.111 5.05657 482.66 5.72453C488.809 6.88261 493.095 7.78485 496.805 8.59368C497.216 8.68361 497.628 8.77393 498.039 8.86516C501.941 9.73652 505.407 10.5579 510.191 11.8388C517.107 13.7458 522.191 15.3556 526.831 16.8857C538.883 21.106 548.22 23.6621 577.047 36.3945C603.763 49.5965 664.437 77.0847 727.125 161.663C744.318 185.262 764.962 220.748 778.702 259.263C778.865 259.713 779.027 260.164 779.189 260.615C793.325 299.523 800.024 340.672 801.652 370.2C802.136 378.154 802.379 386.037 802.388 394.023C802.817 501.325 758.112 605.762 681.269 681.677C665.887 696.499 650.718 708.86 636.036 719.411C592.636 750.267 554.331 766.513 516.959 776.837C508.756 778.984 487.239 785.362 455.301 789.453C445.933 790.639 435.666 791.608 424.472 792.159C417.171 792.517 409.556 792.695 401.5 792.635C379.481 792.469 354.889 790.489 328.606 785.404C321.128 783.956 314.405 782.435 308.089 780.857C281.263 773.528 259.426 768.235 212.108 743.617C152.154 715.236 73.8641 633.89 48.8136 579.983C34.9771 553.909 29.2607 538.154 25.0978 527.131C23.9678 524.051 23.0062 521.326 22.1456 518.815C19.9027 512.237 18.2907 507.135 16.3605 500.34C5.99467 462.581 2.14008 432.421 2.10073 394.023C2.17672 382.531 2.72982 370.401 4.04799 357.105C4.40479 353.5 4.38524 350.281 3.92983 349.952C3.47656 349.618 2.74587 352.334 2.37709 355.952C0.985193 369.65 0.399893 382.164 0.322405 394.023C0.35767 432.394 4.22558 462.977 14.7404 501.127C16.7682 508.248 18.5202 513.741 20.8312 520.453C21.6899 522.935 22.6298 525.576 23.712 528.507C27.8495 539.39 33.5468 555.04 47.3917 581.084C72.5512 635.116 151.095 716.657 211.12 745.1C258.172 769.603 279.667 774.876 306.495 782.29C312.841 783.896 319.637 785.457 327.202 786.943C354.014 792.207 379.106 794.246 401.5 794.413C409.245 794.471 416.594 794.309 423.619 793.98C434.859 793.453 445.134 792.508 454.519 791.345C487.254 787.192 507.538 781.097 514.63 779.339C553.562 768.931 593.716 751.838 637.63 720.45C652.199 709.944 667.097 697.754 682.072 683.364ZM540.08 760.688C540.652 759.958 538.426 760.313 535.111 761.412C533.359 761.991 530.473 762.927 526.561 764.111C506.737 770.187 459.304 782.569 401.5 781.25C377.836 780.813 352.63 778.237 327.507 773.131C320.261 771.661 313.747 770.124 307.645 768.542C281.666 761.206 260.549 754.755 215.041 730.508C94.5771 665.176 14.0591 531.798 15.1408 394.023C14.7209 313.547 40.7729 233.169 88.4875 168.535C125.571 117.992 174.6 76.5698 230.787 48.7958C276.656 22.2885 372.423 5.94559 395.126 8.09855C398.674 8.02581 401.536 7.62409 401.5 7.13371C401.463 6.64555 398.531 6.25479 394.967 6.32902C372.326 4.18854 276.435 20.5094 230.492 46.9638C174.113 74.7339 124.893 116.163 87.5919 166.753C39.3606 231.768 12.6553 312.693 12.7033 394.023C10.9088 532.729 91.5722 668.153 213.394 734.078C259.006 758.313 280.139 762.551 306.075 769.971C312.215 771.582 318.777 773.152 326.133 774.665C351.754 779.945 377.451 782.597 401.5 783.044C457.799 784.325 504.058 772.708 524.022 766.773C528.09 765.578 531.122 764.62 532.988 764.017C536.324 762.943 539.505 761.419 540.08 760.688ZM782.283 394.023C782.626 379.746 782.573 362.257 779.333 337.595C776.21 314.389 771.11 294.526 765.521 277.384C763.911 272.457 762.273 267.803 760.624 263.372C756.442 252.144 752.207 242.324 747.987 233.166C721.145 176.514 695.229 149.903 679.874 133.568C667.651 121.163 660.057 115.054 654.639 110.63C652.992 109.301 651.526 108.142 650.151 107.049C637.862 97.3243 626.322 88.7766 611.808 79.4609C608.587 77.4027 605.204 75.3094 601.63 73.1855C589.679 66.0996 580.573 61.1711 573.413 57.3622C570.277 55.7002 567.495 54.2581 564.865 52.9267C564.817 52.902 564.769 52.8771 564.721 52.8525C564.355 52.6673 563.991 52.4848 563.629 52.3036C563.356 52.167 563.085 52.0294 562.812 51.8935C562.707 51.8344 562.612 51.7828 562.541 51.7441C562.486 51.7135 562.442 51.6899 562.414 51.6747C562.409 51.6715 562.404 51.6682 562.399 51.665C561.89 51.3887 561.445 51.1669 561.354 51.121C561.195 51.0414 561.052 50.9729 560.98 50.9374C560.597 50.7504 560.099 50.5151 559.769 50.3603C558.918 49.9626 557.439 49.2744 555.135 48.2421C553.136 47.3276 551.217 46.4447 548.803 45.3652C548.651 45.2973 548.499 45.2297 548.348 45.162C546 44.117 543.24 42.9139 539.739 41.4775C536.554 40.169 533.456 39.3946 532.856 39.6913C532.256 39.9904 534.373 41.2285 537.549 42.5146C540.839 43.8479 543.419 44.9558 545.764 45.9843C545.912 46.0497 546.061 46.115 546.209 46.1806C548.647 47.2549 550.967 48.3052 553.451 49.4325C554.283 49.8102 555.141 50.2006 555.941 50.5663C557.376 51.2353 558.999 52.0156 560.93 52.9697C561.317 53.1612 561.717 53.358 562.125 53.5615C564.738 54.8654 567.784 56.4237 571.189 58.2099C579.147 62.4006 589.178 67.8109 602.095 75.5439C605.481 77.576 608.729 79.601 611.871 81.623C626.351 90.9733 638.671 100.14 651.565 110.538C653.331 111.967 655.025 113.34 656.824 114.826C662.128 119.26 668.529 124.523 679.733 135.983C694.199 151.553 719.453 177.345 746.123 233.362C750.551 242.919 755.033 253.356 759.237 264.728C760.837 269.054 762.398 273.528 763.9 278.135C769.365 294.934 774.274 314.079 777.364 336.374C780.803 361.875 780.814 379.453 780.469 394.023C780.442 394.987 780.412 395.936 780.378 396.873C780.359 397.395 780.339 397.917 780.318 398.438C780.292 399.086 780.264 399.73 780.236 400.367C779.511 422.612 775.515 456.471 770.467 480.845C767.436 496.146 764.043 508.743 758.752 524.376C756.095 532.082 752.951 540.167 747.361 552.297C745.786 555.692 744.01 559.398 741.954 563.486C732.614 581.661 719.043 607.189 691.112 640.979C683.79 649.741 676.764 657.261 669.978 664.055C667.869 666.165 665.775 668.211 663.703 670.194C655.072 678.456 646.691 685.774 638.793 692.511C632.319 698.063 617.548 709.959 599.657 721.07C581.719 732.358 561.372 742.194 546.262 747.682C544.695 748.258 543.111 748.83 541.525 749.391C527.854 754.244 513.653 758.26 502.011 760.523C475.906 764.978 439.599 770.523 401.5 770.257C363.015 770.308 323.432 764.183 293.152 755.132C292.361 754.9 291.572 754.666 290.783 754.43C220.942 733.294 178.703 698.845 164.812 687.975C164.159 687.449 163.567 686.968 163.035 686.535C162.561 686.148 162.133 685.795 161.756 685.485C156.097 680.826 151.25 676.517 146.286 671.883C146.016 671.63 145.745 671.376 145.475 671.122C140.249 666.203 134.884 660.918 128.722 654.498C105.845 630.562 90.2451 608.32 78.2345 588.355C76.0178 584.655 73.9237 581.016 71.9386 577.434C71.9328 577.424 71.9268 577.414 71.921 577.403C63.2292 561.692 56.5827 547.165 50.9874 533.141C40.8716 507.502 36.4922 489.278 33.4406 475.176C32.4993 470.719 31.7222 466.627 31.0421 462.745C29.5752 454.334 28.5502 446.961 27.6525 439.331C25.9795 424.964 25.3069 411.679 25.2628 398.577C25.2595 397.406 25.2604 396.235 25.2677 395.064C25.2699 394.717 25.2724 394.37 25.2755 394.023C25.4062 380.121 26.2386 366.439 27.8361 352.053C28.2178 348.62 28.1928 345.738 27.716 345.602C27.2409 345.472 26.4889 348.147 26.1027 351.595C24.4968 365.986 23.6338 379.706 23.4972 394.022L23.4972 394.023C23.4867 395.206 23.4803 396.393 23.4806 397.58C23.4893 410.722 24.1378 424.311 25.8302 439.011C26.6918 446.41 27.6405 453.394 29.0548 461.693C29.733 465.648 30.5155 469.861 31.5011 474.59C34.5782 488.992 39.0003 507.542 49.2453 533.561C54.7908 547.482 61.3579 561.906 70.0558 577.696C72.0564 581.322 74.1724 585.016 76.421 588.783C88.4882 608.91 104.211 631.395 127.309 655.587C133.155 661.683 138.249 666.734 143.462 671.67C143.755 671.946 144.048 672.222 144.342 672.498C149.273 677.127 154.396 681.717 160.399 686.666C161.2 687.326 162.226 688.166 163.468 689.168C177.434 700.112 220.021 734.908 290.464 756.184C290.681 756.249 290.898 756.313 291.115 756.378C338.284 769.963 366.286 770.902 386.99 772.444C392.198 772.75 397.019 772.911 401.5 772.975C411.125 773.109 418.932 772.83 425.858 772.426C427.784 772.312 429.604 772.19 431.335 772.061C438.798 771.503 444.712 770.876 450.609 770.245C468.412 768.263 481.197 766.295 496.607 763.583C509.732 761.254 525.465 756.905 538.998 752.215C539.019 752.208 539.039 752.201 539.06 752.194C540.667 751.641 542.246 751.086 543.783 750.535C561.107 744.428 583.18 733.628 601.406 722.073C619.854 710.554 635.138 698.13 642.093 692.075C648.912 686.166 656.459 679.584 665.088 671.322C667.065 669.427 669.098 667.442 671.175 665.365C678.035 658.504 685.415 650.607 692.99 641.501C720.667 607.874 734.093 582.615 743.334 564.688C745.21 560.969 746.896 557.485 748.43 554.207C748.432 554.201 748.435 554.196 748.438 554.19C754.218 541.785 757.96 532.289 760.974 523.392C766.254 507.57 769.775 494.325 772.824 478.234C777.238 456.035 781.086 424.086 781.919 403.123C781.979 401.973 782.036 400.796 782.087 399.602C782.164 397.799 782.23 395.943 782.283 394.023ZM340.848 21.8505C340.735 21.3744 337.859 21.4421 334.45 22.0663C316.033 25.3416 293.437 30.7705 276.056 37.2929C275.813 37.3828 275.569 37.4729 275.326 37.5634C268.247 40.2043 261.081 43.1378 252.611 47.0019C251.53 47.4962 250.424 48.0083 249.298 48.536C239.308 53.2463 227.167 59.3242 211.39 68.9179C158.285 101.2 125.266 138.182 115.234 149.386C95.2093 172.269 75.8604 198.995 57.3751 239.372C55.7056 243.068 54.0473 246.904 52.4279 250.834C51.1119 254.024 50.4411 256.835 50.8673 257.086C51.2965 257.336 52.6532 254.941 53.9601 251.766C55.5359 247.934 57.147 244.2 58.7658 240.601C58.7731 240.585 58.7809 240.568 58.7882 240.552C77.2693 200.098 96.1634 174.111 115.51 151.777C125.659 140.348 159.201 102.455 213.494 69.7245C229.398 60.1334 241.647 54.0757 251.679 49.4042C252.779 48.8948 253.855 48.4029 254.903 47.9296C254.928 47.9184 254.952 47.9066 254.977 47.8954C263.468 44.0714 270.339 41.3047 277.076 38.8144C277.22 38.7618 277.364 38.7095 277.508 38.6571C295.015 32.1415 317.112 26.9474 334.886 23.788C338.277 23.1676 340.959 22.329 340.848 21.8505ZM343.338 0.378825C343.229 -0.0982881 340.219 -0.0545867 336.597 0.552653C313.863 4.34484 270.408 13.4882 222.19 37.8544C193.097 52.4665 162.526 72.5755 134.557 97.8378C124.178 107.326 117.464 113.558 104.167 127.961C96.9019 135.971 87.649 146.539 76.0001 162.559C73.8556 165.516 72.3724 168.346 72.6291 168.835C72.8883 169.323 74.7749 167.296 76.9005 164.349C88.1577 148.788 97.2107 138.334 104.422 130.324C117.902 115.605 124.966 109.014 135.615 99.2714C163.274 74.2656 193.576 54.2606 222.485 39.6903C270.632 15.266 314.219 6.06856 337.015 2.27922C340.621 1.67571 343.443 0.858973 343.338 0.378825ZM790.349 432.914C791.206 421.138 791.671 409.319 791.524 394.023C791.44 386.772 791.198 378.88 790.622 369.798C788.96 341.333 782.94 301.99 769.745 264.285C769.735 264.256 769.724 264.227 769.714 264.197C756.958 226.62 737.849 190.663 720.687 167.05C659.866 84.5452 599.032 57.3115 571.395 43.995C521.422 21.1013 459.673 4.76728 403.352 7.03801C397.14 7.52711 407.634 8.71887 418.921 8.84758C419.329 8.85475 419.738 8.86258 420.146 8.87102C424.044 8.95786 427.492 9.07896 432.289 9.38566C439.23 9.88204 444.399 10.4461 449.111 11.0175C461.828 10.2592 545.956 31.2343 572.926 46.6728C598.933 59.5564 657.16 87.4954 717.663 169.562C734.264 192.469 754.854 226.351 767.765 263.999C767.8 264.101 767.836 264.204 767.871 264.307C780.98 301.534 787.177 341.057 788.85 369.87C789.422 378.878 789.665 386.763 789.747 394.023C789.899 410.237 789.349 422.644 788.409 434.733C788.396 434.904 788.382 435.076 788.368 435.247C786.869 452.389 784.927 469.091 778.159 495.074C773.465 512.821 766.271 534.498 756.162 556.64C736.156 601.902 701.896 647.274 672.981 674.331C670.404 676.806 668.452 679.152 668.67 679.619C668.888 680.082 671.207 678.485 673.8 676.003C703.155 648.647 738.027 602.393 758.097 556.673C768.143 534.551 775.244 513.014 779.861 495.569C786.927 468.458 788.869 450.873 790.306 433.471C790.32 433.285 790.335 433.099 790.349 432.914ZM522.333 34.7079C522.454 34.2337 519.873 32.954 516.54 31.915C508.63 29.4468 500.603 27.2303 492.55 25.29C489.172 24.475 486.353 24.2582 486.277 24.7411C486.204 25.2272 488.89 26.2285 492.251 27.0409C500.267 28.9751 508.253 31.1831 516.126 33.6425C519.44 34.6765 522.206 35.1821 522.333 34.7079Z" fill="#B92E2D"/>
</svg>
