<svg width="127" height="26" viewBox="0 0 127 26" fill="none" xmlns="http://www.w3.org/2000/svg">
<g clip-path="url(#clip0_352_391)">
<path d="M31.2528 4.43597C32.8289 4.43597 34.0873 4.96957 35.0279 6.03594C35.9682 7.10272 36.4385 8.56827 36.4385 10.4326V18.6488H32.3386V11.0129C32.3386 10.0719 32.1052 9.34161 31.6388 8.82113C31.172 8.29983 30.5451 8.03918 29.7575 8.03918C28.9698 8.03918 28.3426 8.29983 27.8762 8.82113C27.4094 9.34161 27.1764 10.0719 27.1764 11.0129V18.6488H23.0513V4.58679H27.1764V6.45069C27.5945 5.83021 28.1574 5.33924 28.8647 4.97859C29.5715 4.61712 30.3678 4.43597 31.2528 4.43597Z" fill="#160F42"/>
<path d="M51.9963 11.3916C51.9963 11.7948 51.972 12.2145 51.9242 12.6505H42.5898C42.6534 13.5251 42.9225 14.1931 43.3963 14.6554C43.871 15.1169 44.4543 15.3472 45.1458 15.3472C46.1751 15.3472 46.891 14.8939 47.2939 13.9866H51.6825C51.4574 14.9112 51.0518 15.7431 50.4649 16.4816C49.8781 17.2205 49.1422 17.8004 48.2573 18.2209C47.3731 18.6406 46.3846 18.8504 45.2918 18.8504C43.9726 18.8504 42.7985 18.5566 41.7692 17.9685C40.7399 17.3808 39.9354 16.5406 39.356 15.4488C38.7774 14.3562 38.4883 13.0792 38.4883 11.6178C38.4883 10.1555 38.7739 8.87849 39.345 7.7867C39.9162 6.69492 40.7164 5.85518 41.7457 5.26708C42.775 4.67939 43.9569 4.38513 45.2918 4.38513C46.5941 4.38513 47.7512 4.67119 48.7641 5.24249C49.7777 5.81297 50.5693 6.62771 51.1396 7.68671C51.7108 8.74488 51.9963 9.97969 51.9963 11.3916ZM47.7756 10.2571C47.7756 9.51741 47.5343 8.9293 47.0522 8.49325C46.5697 8.05637 45.9668 7.83752 45.2431 7.83752C44.5516 7.83752 43.9683 8.04817 43.4936 8.46866C43.0198 8.88832 42.7263 9.48462 42.6134 10.2571H47.7756Z" fill="#160F42"/>
<path d="M58.2925 6.57689C58.6942 5.9224 59.2485 5.39331 59.9557 4.99004C60.6638 4.58677 61.4922 4.38513 62.4411 4.38513C63.5508 4.38513 64.5562 4.67939 65.4568 5.26708C66.3575 5.85518 67.0686 6.69492 67.5908 7.7867C68.1136 8.87849 68.3753 10.1473 68.3753 11.5932C68.3753 13.0382 68.1136 14.3108 67.5908 15.4111C67.0686 16.5119 66.3575 17.3603 65.4568 17.957C64.5562 18.5529 63.5508 18.8504 62.4411 18.8504C61.5079 18.8504 60.6838 18.6488 59.9683 18.2455C59.2528 17.8422 58.6942 17.3218 58.2925 16.6833V25.3519H54.1675V4.58677H58.2925V6.57689ZM64.1781 11.5932C64.1781 10.5178 63.8925 9.67355 63.3214 9.06045C62.7502 8.44653 62.0465 8.13916 61.211 8.13916C60.3907 8.13916 59.6953 8.45022 59.1241 9.07192C58.5538 9.69404 58.269 10.5424 58.269 11.6178C58.269 12.6932 58.5538 13.5419 59.1241 14.1636C59.6953 14.7845 60.3907 15.0948 61.211 15.0948C62.0308 15.0948 62.7302 14.78 63.3088 14.1505C63.8882 13.5202 64.1781 12.6678 64.1781 11.5932Z" fill="#160F42"/>
<path d="M69.7251 11.5932C69.7251 10.1473 69.9863 8.87851 70.5096 7.78673C71.0325 6.69495 71.7436 5.85521 72.6435 5.26711C73.5441 4.67942 74.5491 4.38516 75.6592 4.38516C76.5442 4.38516 77.3522 4.5786 78.0834 4.96548C78.8154 5.35153 79.3904 5.87202 79.8078 6.52774V0H83.9329V18.6488H79.8078V16.6325C79.4218 17.3046 78.8711 17.8423 78.1556 18.2455C77.4401 18.6488 76.6077 18.8504 75.6592 18.8504C74.5491 18.8504 73.5441 18.5529 72.6435 17.957C71.7436 17.3603 71.0325 16.512 70.5096 15.4112C69.9863 14.3108 69.7251 13.0383 69.7251 11.5932ZM79.8078 11.6178C79.8078 10.5424 79.5222 9.69407 78.9511 9.07195C78.3807 8.45024 77.6857 8.13918 76.8658 8.13918C76.0456 8.13918 75.3501 8.44656 74.779 9.06048C74.2078 9.67358 73.9223 10.5178 73.9223 11.5932C73.9223 12.6678 74.2078 13.5202 74.779 14.1505C75.3501 14.78 76.0456 15.0948 76.8658 15.0948C77.6857 15.0948 78.3807 14.7845 78.9511 14.1637C79.5222 13.5419 79.8078 12.6932 79.8078 11.6178Z" fill="#160F42"/>
<path d="M93.051 18.8504C91.7318 18.8504 90.5456 18.5566 89.4924 17.9685C88.4388 17.3808 87.6103 16.5406 87.007 15.4488C86.4045 14.3562 86.1032 13.0792 86.1032 11.6178C86.1032 10.1731 86.4084 8.90062 87.0196 7.79982C87.6315 6.69943 88.4678 5.85518 89.5285 5.26708C90.59 4.67939 91.7805 4.38513 93.0997 4.38513C94.4177 4.38513 95.607 4.67939 96.6677 5.26708C97.7292 5.85518 98.5655 6.69943 99.1766 7.79982C99.7885 8.90062 100.095 10.1731 100.095 11.6178C100.095 13.0628 99.7846 14.3353 99.1656 15.4357C98.5462 16.5365 97.7017 17.3808 96.6316 17.9685C95.5623 18.5566 94.369 18.8504 93.051 18.8504ZM93.051 15.121C93.8387 15.121 94.5095 14.8189 95.0641 14.2144C95.6196 13.6091 95.8973 12.7436 95.8973 11.6178C95.8973 10.4924 95.6278 9.62724 95.0892 9.02275C94.5503 8.41743 93.8873 8.11457 93.0997 8.11457C92.2951 8.11457 91.6271 8.41292 91.096 9.00963C90.5656 9.60634 90.3005 10.476 90.3005 11.6178C90.3005 12.7436 90.5617 13.6091 91.085 14.2144C91.6079 14.8189 92.2634 15.121 93.051 15.121Z" fill="#160F42"/>
<path d="M106.414 6.93101C106.896 6.15725 107.499 5.54825 108.223 5.10317C108.947 4.65851 109.751 4.43597 110.635 4.43597V8.99654H109.502C108.473 8.99654 107.701 9.22768 107.186 9.68997C106.671 10.1523 106.414 10.9629 106.414 12.1211V18.6488H102.289V4.58679H106.414V6.93101Z" fill="#160F42"/>
<path d="M111.792 11.5932C111.792 10.1473 112.053 8.87849 112.577 7.7867C113.1 6.69492 113.811 5.85518 114.711 5.26708C115.611 4.67939 116.616 4.38513 117.726 4.38513C118.675 4.38513 119.507 4.58677 120.223 4.99004C120.938 5.39331 121.489 5.9224 121.875 6.57689V4.58677H126V18.6488H121.875V16.6587C121.473 17.3136 120.915 17.8422 120.199 18.2455C119.484 18.6488 118.651 18.8504 117.703 18.8504C116.608 18.8504 115.611 18.5529 114.711 17.957C113.811 17.3603 113.1 16.5119 112.577 15.4111C112.053 14.3108 111.792 13.0382 111.792 11.5932ZM121.875 11.6178C121.875 10.5424 121.589 9.69404 121.018 9.07192C120.448 8.45022 119.753 8.13916 118.933 8.13916C118.113 8.13916 117.417 8.44653 116.846 9.06045C116.275 9.67355 115.989 10.5178 115.989 11.5932C115.989 12.6678 116.275 13.5202 116.846 14.1505C117.417 14.78 118.113 15.0948 118.933 15.0948C119.753 15.0948 120.448 14.7845 121.018 14.1636C121.589 13.5419 121.875 12.6932 121.875 11.6178Z" fill="#160F42"/>
<mask id="mask0_352_391" style="mask-type:luminance" maskUnits="userSpaceOnUse" x="0" y="5" width="14" height="18">
<path d="M3.96174 6.05178L13.6744 18.2551C13.8485 18.4727 13.6445 18.7891 13.3858 18.7183L6.52664 16.9959C6.43824 16.9636 6.33745 16.99 6.27459 17.0619L1.03706 21.948C0.842174 22.1375 0.516868 21.9594 0.569656 21.6826L3.48288 6.17707C3.51686 5.93288 3.81927 5.85378 3.96174 6.05178Z" fill="white"/>
</mask>
<g mask="url(#mask0_352_391)">
<path d="M15.1176 4.89471H-0.176468V24.6316H15.1176V4.89471Z" fill="url(#paint0_linear_352_391)"/>
<path style="mix-blend-mode:soft-light" opacity="0.65" d="M15.1176 4.89471H-0.176468V24.6316H15.1176V4.89471Z" fill="url(#paint1_linear_352_391)"/>
</g>
<path opacity="0.8" d="M1.03707 21.9481L6.27459 17.0619C6.30915 17.039 6.35328 16.9997 6.39419 17.0029L3.68721 5.97134C3.5864 5.99771 3.49836 6.07611 3.4735 6.19334L0.569655 21.6826C0.516867 21.9594 0.83279 22.1537 1.03707 21.9481Z" fill="url(#paint2_linear_352_391)"/>
<mask id="mask1_352_391" style="mask-type:luminance" maskUnits="userSpaceOnUse" x="5" y="1" width="14" height="17">
<path d="M15.3957 17.1587L5.68301 4.95538C5.50896 4.7378 5.71291 4.42138 5.97161 4.49219L12.8308 6.21459C12.9192 6.24687 13.02 6.22051 13.0828 6.14866L18.3204 1.26247C18.5152 1.07307 18.8405 1.2511 18.7878 1.52791L15.8745 17.0335C15.8406 17.2776 15.5382 17.3567 15.3957 17.1587Z" fill="white"/>
</mask>
<g mask="url(#mask1_352_391)">
<path d="M20.4706 0.157898H5.17647V19.8947H20.4706V0.157898Z" fill="url(#paint3_linear_352_391)"/>
<path style="mix-blend-mode:soft-light" opacity="0.65" d="M20.4706 0.157898H5.17647V19.8947H20.4706V0.157898Z" fill="url(#paint4_linear_352_391)"/>
</g>
<path opacity="0.8" d="M18.3202 1.2624L13.0827 6.14859C13.0481 6.17148 13.004 6.21072 12.9631 6.20756L15.6701 17.2391C15.7709 17.2127 15.8589 17.1344 15.8838 17.0171L18.7876 1.52783C18.8404 1.25103 18.5245 1.05673 18.3202 1.2624Z" fill="url(#paint5_linear_352_391)"/>
<path opacity="0.6" d="M3.96174 6.05178L13.6744 18.2551C13.8485 18.4727 13.6445 18.7891 13.3858 18.7183L6.52664 16.9959C6.43824 16.9636 6.33745 16.99 6.27459 17.0619L1.03706 21.948C0.842174 22.1375 0.516868 21.9594 0.569656 21.6826L3.48288 6.17707C3.51686 5.93288 3.81927 5.85378 3.96174 6.05178Z" stroke="url(#paint6_linear_352_391)" stroke-width="0.3"/>
<path opacity="0.6" d="M15.3957 17.1587L5.68301 4.95538C5.50896 4.7378 5.71291 4.42138 5.97161 4.49219L12.8308 6.21459C12.9192 6.24688 13.02 6.22051 13.0828 6.14866L18.3204 1.26247C18.5152 1.07307 18.8405 1.2511 18.7878 1.52791L15.8745 17.0335C15.8406 17.2776 15.5382 17.3567 15.3957 17.1587Z" stroke="url(#paint7_linear_352_391)" stroke-width="0.3"/>
</g>
<defs>
<linearGradient id="paint0_linear_352_391" x1="0.588238" y1="5.68419" x2="7.05464" y2="22.126" gradientUnits="userSpaceOnUse">
<stop stop-color="#FFD600"/>
<stop offset="0.25" stop-color="#FF8800"/>
<stop offset="0.5" stop-color="#FF00E5"/>
<stop offset="0.75" stop-color="#6B4EFF"/>
<stop offset="1" stop-color="#00F0FF"/>
</linearGradient>
<linearGradient id="paint1_linear_352_391" x1="0.588238" y1="5.68419" x2="7.05464" y2="22.126" gradientUnits="userSpaceOnUse">
<stop stop-color="#FFD600"/>
<stop offset="0.25" stop-color="#FF8800"/>
<stop offset="0.5" stop-color="#FF00E5"/>
<stop offset="0.75" stop-color="#6B4EFF"/>
<stop offset="1" stop-color="#00F0FF"/>
</linearGradient>
<linearGradient id="paint2_linear_352_391" x1="0.588237" y1="21.4737" x2="6.24901" y2="6.59077" gradientUnits="userSpaceOnUse">
<stop stop-color="#B967FF"/>
<stop offset="0.5" stop-color="#FF1493"/>
<stop offset="1" stop-color="#FFD700"/>
</linearGradient>
<linearGradient id="paint3_linear_352_391" x1="18.1765" y1="0.947372" x2="12.5085" y2="17.4179" gradientUnits="userSpaceOnUse">
<stop stop-color="#00F0FF"/>
<stop offset="0.25" stop-color="#0066FF"/>
<stop offset="0.5" stop-color="#9D4EFF"/>
<stop offset="0.75" stop-color="#FF00AA"/>
<stop offset="1" stop-color="#FFB800"/>
</linearGradient>
<linearGradient id="paint4_linear_352_391" x1="18.1765" y1="0.947372" x2="12.5085" y2="17.4179" gradientUnits="userSpaceOnUse">
<stop stop-color="#00F0FF"/>
<stop offset="0.25" stop-color="#0066FF"/>
<stop offset="0.5" stop-color="#9D4EFF"/>
<stop offset="0.75" stop-color="#FF00AA"/>
<stop offset="1" stop-color="#FFB800"/>
</linearGradient>
<linearGradient id="paint5_linear_352_391" x1="18.1765" y1="0.947377" x2="12.5119" y2="16.6242" gradientUnits="userSpaceOnUse">
<stop stop-color="#00D4FF"/>
<stop offset="0.5" stop-color="#7B3FFF"/>
<stop offset="1" stop-color="#FFA500"/>
</linearGradient>
<linearGradient id="paint6_linear_352_391" x1="0.588238" y1="5.6842" x2="7.05464" y2="22.126" gradientUnits="userSpaceOnUse">
<stop stop-color="#FFD600"/>
<stop offset="0.25" stop-color="#FF8800"/>
<stop offset="0.5" stop-color="#FF00E5"/>
<stop offset="0.75" stop-color="#6B4EFF"/>
<stop offset="1" stop-color="#00F0FF"/>
</linearGradient>
<linearGradient id="paint7_linear_352_391" x1="18.1765" y1="0.947375" x2="12.5085" y2="17.4179" gradientUnits="userSpaceOnUse">
<stop stop-color="#00F0FF"/>
<stop offset="0.25" stop-color="#0066FF"/>
<stop offset="0.5" stop-color="#9D4EFF"/>
<stop offset="0.75" stop-color="#FF00AA"/>
<stop offset="1" stop-color="#FFB800"/>
</linearGradient>
<clipPath id="clip0_352_391">
<rect width="127" height="26" fill="white"/>
</clipPath>
</defs>
</svg>
